<svg width="154" height="63" viewBox="0 0 154 63" fill="none" xmlns="http://www.w3.org/2000/svg">
<g clip-path="url(#clip0_11_58)">
<path d="M51.7268 30.8762H55.5172L55.0803 31.9141C54.1188 34.2893 52.4788 36.329 50.3649 37.7785C48.4036 39.1217 46.1124 39.9038 43.7389 40.0405C41.3653 40.1771 38.9994 39.6631 36.8968 38.5539C34.7941 37.4447 33.0345 35.7824 31.8081 33.7467C30.5816 31.7109 29.9348 29.3789 29.9375 27.0025C29.9375 23.5428 31.3125 20.2248 33.76 17.7785C36.2075 15.3322 39.5271 13.9578 42.9884 13.9578C45.6218 13.9401 48.197 14.7321 50.3649 16.2264C52.4772 17.6899 54.116 19.738 55.0803 22.1192L55.5172 23.1628H51.7324L51.5225 22.7601C50.7286 21.1895 49.5223 19.8642 48.0328 18.9261C46.5283 17.9576 44.7721 17.4527 42.9827 17.4742C41.7266 17.4697 40.4821 17.7139 39.321 18.1928C38.1599 18.6717 37.1052 19.3757 36.2179 20.2642C35.3305 21.1528 34.628 22.2082 34.151 23.3696C33.6739 24.531 33.4318 25.7754 33.4385 27.0308C33.4208 28.2853 33.658 29.5304 34.136 30.6905C34.6139 31.8507 35.3225 32.9017 36.2189 33.78C37.0938 34.6842 38.1463 35.3978 39.3103 35.876C40.4742 36.3542 41.7245 36.5868 42.9827 36.5591C44.765 36.5871 46.5179 36.1028 48.0328 35.1639C49.5259 34.2202 50.7327 32.8866 51.5225 31.3072L51.7268 30.8762Z" fill="#102E4F"/>
<path d="M70.7242 14.2131V17.7352H66.4912V39.8147H63.0015V17.7352H58.7969V14.2131H70.7242Z" fill="#102E4F"/>
<path d="M96.2472 17.8201C94.4209 16.0088 92.0998 14.7775 89.5756 14.2808C87.0513 13.7841 84.4365 14.0442 82.0597 15.0284C79.6828 16.0126 77.6501 17.6771 76.2168 19.8125C74.7835 21.948 74.0137 24.4593 74.004 27.0308C73.9853 28.7472 74.3145 30.4497 74.9718 32.0356C75.6291 33.6215 76.6008 35.058 77.8285 36.2584C79.0362 37.4701 80.4715 38.4316 82.0518 39.0876C83.6322 39.7436 85.3266 40.0813 87.0378 40.0813C88.749 40.0813 90.4434 39.7436 92.0238 39.0876C93.6042 38.4316 95.0394 37.4701 96.2472 36.2584C97.4826 35.0627 98.461 33.6277 99.1225 32.041C99.784 30.4544 100.115 28.7495 100.094 27.0308C100.119 25.3139 99.7903 23.6103 99.1285 22.0258C98.4667 20.4413 97.4859 19.0097 96.2472 17.8201ZM87.0378 36.5363C85.7805 36.5643 84.5309 36.3318 83.3679 35.8535C82.2048 35.3753 81.1534 34.6615 80.2797 33.7573C78.4986 31.9575 77.4997 29.5282 77.4997 26.9967C77.4997 24.4652 78.4986 22.0359 80.2797 20.2362C81.6171 18.8989 83.3216 17.9885 85.1771 17.6203C87.0326 17.2521 88.9557 17.4427 90.7028 18.1679C92.4498 18.8931 93.9422 20.1203 94.9909 21.6941C96.0395 23.2678 96.5972 25.1172 96.5933 27.0081C96.6118 28.2678 96.3693 29.5178 95.881 30.6793C95.3928 31.8408 94.6693 32.8888 93.7562 33.7573C92.895 34.6685 91.852 35.3887 90.6947 35.8714C89.5374 36.354 88.2915 36.5883 87.0378 36.559V36.5363Z" fill="#102E4F"/>
<path d="M115.755 27.0309C116.588 26.3755 117.253 25.5332 117.699 24.5725C118.145 23.6117 118.357 22.5595 118.32 21.5011C118.298 19.5761 117.524 17.736 116.162 16.3741C114.801 15.0123 112.96 14.2367 111.034 14.2131H103.374V39.8147H111.006C112.937 39.8102 114.787 39.0415 116.153 37.6768C117.518 36.312 118.287 34.4624 118.292 32.5324C118.33 31.4808 118.121 30.4349 117.68 29.4793C117.239 28.5236 116.58 27.6849 115.755 27.0309ZM113.696 35.232C113.35 35.5861 112.936 35.8658 112.478 36.0541C112.02 36.2423 111.529 36.3351 111.034 36.3267H106.892V28.7608H111.034C112.027 28.7852 112.973 29.1904 113.675 29.8925C114.378 30.5946 114.783 31.5398 114.808 32.5324C114.81 33.036 114.71 33.5348 114.514 33.9988C114.318 34.4627 114.03 34.8823 113.667 35.232H113.696ZM113.696 24.1951C113.347 24.5484 112.93 24.8279 112.471 25.0169C112.012 25.206 111.52 25.3007 111.023 25.2954H106.881V17.7352H111.023C111.52 17.7268 112.014 17.8184 112.476 18.0046C112.937 18.1908 113.356 18.4678 113.708 18.8191C114.06 19.1704 114.338 19.5889 114.525 20.0496C114.712 20.5104 114.804 21.004 114.796 21.5011C114.799 22.0019 114.701 22.4981 114.509 22.9607C114.317 23.4233 114.035 23.8429 113.679 24.1951H113.696Z" fill="#102E4F"/>
<path d="M125.055 19.7259V25.2954H135.485V28.7835H125.055V34.3303C125.058 34.5959 125.114 34.8584 125.218 35.1026C125.323 35.3468 125.475 35.568 125.665 35.7534C125.855 35.9389 126.08 36.085 126.327 36.1834C126.574 36.2817 126.838 36.3304 127.104 36.3267H135.502V39.8147H127.104C126.38 39.823 125.662 39.687 124.991 39.4146C124.32 39.1422 123.71 38.7389 123.197 38.2283C122.684 37.7176 122.278 37.1099 122.003 36.4406C121.728 35.7713 121.589 35.0539 121.594 34.3303V19.7259C121.591 19.0016 121.732 18.2839 122.007 17.6141C122.283 16.9442 122.689 16.3356 123.201 15.8231C123.713 15.3107 124.322 14.9046 124.991 14.6283C125.661 14.352 126.379 14.2109 127.104 14.2132H135.502V17.7352H127.104C126.838 17.7276 126.572 17.7735 126.324 17.8702C126.076 17.9668 125.85 18.1122 125.659 18.2979C125.468 18.4835 125.316 18.7055 125.212 18.9508C125.109 19.1961 125.055 19.4597 125.055 19.7259Z" fill="#102E4F"/>
<path d="M148.956 28.2787C150.241 27.7708 151.361 26.9169 152.19 25.8115C153.127 24.5715 153.624 23.0549 153.603 21.5011C153.612 19.5802 152.858 17.7341 151.507 16.3678C150.156 15.0015 148.318 14.2266 146.396 14.2131H138.77V39.8147H142.226V28.7608H145.364L150.221 39.8147H154L148.956 28.2787ZM141.857 16.9809V17.7352V16.9809ZM142.232 17.7352H146.396C146.894 17.7276 147.388 17.8197 147.849 18.0061C148.31 18.1925 148.729 18.4695 149.082 18.8205C149.434 19.1716 149.712 19.5897 149.9 20.0501C150.088 20.5105 150.182 21.0039 150.176 21.5011C150.179 21.999 150.084 22.4927 149.896 22.9536C149.708 23.4146 149.43 23.8336 149.078 24.1864C148.727 24.5393 148.309 24.819 147.848 25.0093C147.388 25.1997 146.895 25.2969 146.396 25.2954H142.254L142.232 17.7352Z" fill="#102E4F"/>
<path d="M15.2127 13.8898C13.2496 13.5982 11.246 13.7533 9.35121 14.3435L15.2808 2.83584C15.4004 2.6095 15.4736 2.36164 15.4963 2.10671C15.519 1.85178 15.4908 1.59488 15.4131 1.35099C15.3355 1.1071 15.21 0.881101 15.0441 0.686162C14.8782 0.491224 14.6751 0.331249 14.4467 0.215564C13.9898 -0.0190313 13.4585 -0.0630079 12.9693 0.093272C12.48 0.249552 12.0727 0.59334 11.8365 1.04929L2.09381 19.964C0.643157 22.2793 -0.0454097 24.9906 0.124831 27.7171C0.276214 30.2004 1.12827 32.5901 2.58233 34.6093C4.03639 36.6286 6.03297 38.1949 8.34086 39.1268C10.6487 40.0587 13.1735 40.3181 15.6228 39.875C18.0721 39.4319 20.3458 38.3044 22.1804 36.623C24.0151 34.9416 25.3357 32.7752 25.9894 30.3746C26.643 27.974 26.603 25.4374 25.8739 23.0586C25.1448 20.6798 23.7565 18.5561 21.8697 16.9334C19.9829 15.3107 17.6748 14.2554 15.2127 13.8898ZM12.3756 36.1621C10.9427 36.0245 9.56145 35.556 8.34076 34.7935C7.12007 34.031 6.09338 32.9954 5.34173 31.7683C4.59007 30.5413 4.13402 29.1564 4.00955 27.723C3.88509 26.2896 4.09562 24.8469 4.62454 23.5088L5.46433 21.881C6.35853 20.4948 7.60585 19.3715 9.07812 18.6266C10.5504 17.8816 12.1946 17.5419 13.8417 17.6423C15.4888 17.7427 17.0795 18.2796 18.4503 19.1979C19.8211 20.1161 20.9226 21.3826 21.6416 22.8671C22.3607 24.3517 22.6713 26.0008 22.5416 27.6451C22.412 29.2894 21.8467 30.8696 20.9038 32.2232C19.961 33.5768 18.6746 34.6552 17.1768 35.3474C15.679 36.0397 14.0238 36.3208 12.3813 36.1621H12.3756Z" fill="#102E4F"/>
<path d="M16.6086 20.8716C16.759 20.8716 16.906 20.9162 17.031 20.9997C17.1561 21.0832 17.2535 21.2019 17.3111 21.3407C17.3686 21.4796 17.3837 21.6324 17.3544 21.7798C17.325 21.9273 17.2526 22.0627 17.1463 22.169C17.0399 22.2753 16.9045 22.3476 16.757 22.377C16.6095 22.4063 16.4566 22.3912 16.3176 22.3337C16.1787 22.2762 16.06 22.1788 15.9764 22.0538C15.8929 21.9288 15.8483 21.7819 15.8483 21.6316C15.8483 21.43 15.9284 21.2367 16.071 21.0942C16.2136 20.9517 16.407 20.8716 16.6086 20.8716Z" fill="#102E4F"/>
<path d="M12.3246 25.8113C11.835 25.8113 11.3565 25.6662 10.9495 25.3942C10.5425 25.1222 10.2254 24.7357 10.0384 24.2835C9.85128 23.8313 9.80262 23.3339 9.89854 22.854C9.99446 22.3742 10.2306 21.9336 10.5772 21.588C10.9238 21.2424 11.3651 21.0073 11.8454 20.9125C12.3257 20.8178 12.8233 20.8676 13.2753 21.0556C13.7272 21.2436 14.1132 21.5614 14.3844 21.9688C14.6555 22.3762 14.7997 22.8549 14.7986 23.3442C14.7986 23.6687 14.7345 23.99 14.6101 24.2897C14.4857 24.5894 14.3034 24.8616 14.0736 25.0907C13.8438 25.3199 13.571 25.5015 13.2709 25.6252C12.9708 25.7488 12.6492 25.8121 12.3246 25.8113Z" fill="#102E4F"/>
<path d="M16.8299 26.8608C16.6358 26.8608 16.446 26.8033 16.2845 26.6954C16.1231 26.5876 15.9973 26.4344 15.923 26.2551C15.8487 26.0758 15.8293 25.8785 15.8671 25.6882C15.905 25.4979 15.9985 25.323 16.1358 25.1858C16.2731 25.0486 16.448 24.9552 16.6384 24.9173C16.8288 24.8794 17.0262 24.8989 17.2056 24.9731C17.385 25.0474 17.5383 25.1732 17.6461 25.3345C17.754 25.4959 17.8116 25.6856 17.8116 25.8796C17.8101 26.1394 17.7062 26.3881 17.5224 26.5718C17.3386 26.7555 17.0898 26.8593 16.8299 26.8608Z" fill="#102E4F"/>
</g>
<defs>
<clipPath id="clip0_11_58">
<rect width="154" height="63" fill="white"/>
</clipPath>
</defs>
</svg>
