<svg width="205" height="84" viewBox="0 0 205 84" fill="none" xmlns="http://www.w3.org/2000/svg">
<g clip-path="url(#clip0_13_450)">
<path d="M18.166 62.7657C20.038 64.0657 21.494 65.8806 22.3581 67.9911H20.2885C19.4825 66.3908 18.2549 65.0414 16.7384 64.0891C15.2074 63.0943 13.4196 62.5687 11.5945 62.5766C9.67017 62.5786 7.7895 63.151 6.18966 64.2216C4.58982 65.2923 3.34245 66.8132 2.60484 68.5926C1.86724 70.372 1.67243 72.3302 2.04497 74.2203C2.41752 76.1104 3.34074 77.8478 4.69823 79.2133C5.58897 80.1397 6.66135 80.8719 7.84809 81.3638C9.03483 81.8557 10.3103 82.0967 11.5945 82.0718C13.4122 82.0879 15.1968 81.5842 16.7384 80.6198C18.2539 79.653 19.4804 78.2944 20.2885 76.6875H22.3581C21.5025 78.8051 20.0449 80.6246 18.166 81.9205C16.2428 83.2735 13.9449 83.99 11.5945 83.9699C10.0685 83.9949 8.55361 83.7057 7.14383 83.1204C5.73404 82.535 4.45943 81.6659 3.39904 80.5669C1.2233 78.3874 0.00109863 75.4321 0.00109863 72.3507C0.00109863 69.2693 1.2233 66.314 3.39904 64.1344C4.45943 63.0355 5.73404 62.1664 7.14383 61.581C8.55361 60.9956 10.0685 60.7065 11.5945 60.7315C13.9421 60.7149 16.2374 61.4254 18.166 62.7657Z" fill="#102E4F"/>
<path d="M39.8292 68.9437C41.056 70.1806 41.8899 71.7533 42.2257 73.4637C42.5615 75.174 42.3844 76.9457 41.7165 78.5555C41.0486 80.1652 39.9199 81.5412 38.4724 82.51C37.025 83.4788 35.3236 83.9972 33.5825 83.9999C31.8417 83.9963 30.1409 83.4768 28.6947 82.5069C27.2484 81.5369 26.1213 80.16 25.4556 78.5497C24.7899 76.9393 24.6154 75.1677 24.954 73.4582C25.2927 71.7487 26.1293 70.1778 27.3585 68.9437C28.1745 68.119 29.1458 67.4644 30.216 67.0176C31.2862 66.5708 32.4343 66.3408 33.5938 66.3408C34.7534 66.3408 35.9014 66.5708 36.9717 67.0176C38.0419 67.4644 39.0131 68.119 39.8292 68.9437ZM28.6577 70.2444C27.6843 71.2162 27.0215 72.4557 26.7533 73.8055C26.4851 75.1553 26.6237 76.5544 27.1515 77.8252C27.6793 79.0959 28.5724 80.181 29.7175 80.9424C30.8626 81.7039 32.2079 82.1074 33.5825 82.1018C34.7212 82.0971 35.8412 81.8118 36.8436 81.2709C37.8461 80.7301 38.7 79.9504 39.33 79.0008C39.9601 78.0512 40.3468 76.9609 40.4561 75.8261C40.5654 74.6914 40.3939 73.5471 39.9567 72.4945C39.5195 71.4418 38.8301 70.5132 37.9493 69.7906C37.0686 69.0679 36.0237 68.5736 34.9068 68.3512C33.79 68.1288 32.6357 68.1852 31.5458 68.5154C30.4559 68.8456 29.4639 69.4394 28.6577 70.2444Z" fill="#102E4F"/>
<path d="M49.3465 62.8636C49.0034 62.8606 48.663 62.9257 48.3452 63.0551C48.0273 63.1845 47.7382 63.3756 47.4945 63.6175C47.2508 63.8593 47.0574 64.1471 46.9254 64.4642C46.7934 64.7813 46.7254 65.1214 46.7254 65.465V66.3422C46.7178 66.3926 46.722 66.4441 46.7379 66.4926C46.7538 66.5411 46.7808 66.5851 46.8169 66.6212C46.8529 66.6573 46.8969 66.6844 46.9453 66.7003C46.9937 66.7161 47.0452 66.7204 47.0956 66.7127H49.8526V68.5654H47.0956C47.0448 68.5591 46.9932 68.5645 46.9449 68.5814C46.8966 68.5983 46.8528 68.6261 46.817 68.6627C46.7811 68.6993 46.7542 68.7437 46.7384 68.7924C46.7225 68.8411 46.7181 68.8928 46.7254 68.9435V83.7502H44.8522V65.465C44.8394 64.878 44.9483 64.2948 45.1719 63.752C45.3955 63.2093 45.729 62.7188 46.1514 62.3116C46.5611 61.877 47.0569 61.5329 47.6071 61.3011C48.1573 61.0693 48.7497 60.955 49.3465 60.9655H49.8526V62.8636H49.3465Z" fill="#102E4F"/>
<path d="M56.8169 62.8636C56.4738 62.8606 56.1335 62.9257 55.8156 63.0551C55.4977 63.1845 55.2086 63.3756 54.9649 63.6175C54.7212 63.8593 54.5278 64.1471 54.3958 64.4642C54.2638 64.7813 54.1959 65.1214 54.1959 65.465V66.3422C54.1882 66.3926 54.1925 66.4441 54.2083 66.4926C54.2242 66.5411 54.2513 66.5851 54.2873 66.6212C54.3233 66.6573 54.3673 66.6844 54.4157 66.7003C54.4642 66.7161 54.5156 66.7204 54.566 66.7127H57.3381V68.5654H54.566C54.5152 68.5591 54.4637 68.5645 54.4153 68.5814C54.367 68.5983 54.3232 68.6261 54.2874 68.6627C54.2516 68.6993 54.2247 68.7437 54.2088 68.7924C54.1929 68.8411 54.1885 68.8928 54.1959 68.9435V83.7502H52.3226V65.465C52.3109 64.8775 52.4209 64.2939 52.6458 63.7511C52.8707 63.2084 53.2056 62.7182 53.6294 62.3116C54.0391 61.877 54.5349 61.5329 55.0851 61.3011C55.6353 61.0693 56.2277 60.955 56.8245 60.9655H57.3457V62.8636H56.8169Z" fill="#102E4F"/>
<path d="M74.8317 68.9437C75.6621 69.7501 76.3185 70.7185 76.7602 71.789C77.2019 72.8595 77.4196 74.0093 77.3999 75.1673V76.1201H62.0891C61.8398 76.1201 61.7643 76.2487 61.787 76.4453C62.0817 78.0347 62.9229 79.4706 64.1647 80.5038C65.4065 81.5371 66.9704 82.1024 68.5851 82.1018C69.947 82.1072 71.2802 81.7105 72.4182 80.9613C73.5561 80.2121 74.4482 79.1437 74.9828 77.8897H76.9769C76.4045 79.6647 75.2762 81.208 73.7592 82.2908C72.2632 83.3998 70.4464 83.9893 68.5851 83.9696C66.8443 83.9661 65.1435 83.4466 63.6972 82.4766C62.2509 81.5067 61.1239 80.1297 60.4582 78.5194C59.7925 76.909 59.618 75.1374 59.9566 73.4279C60.2952 71.7184 61.1319 70.1476 62.361 68.9134C63.1771 68.0887 64.1483 67.4341 65.2186 66.9873C66.2888 66.5406 67.4368 66.3105 68.5964 66.3105C69.7559 66.3105 70.904 66.5406 71.9742 66.9873C73.0445 67.4341 74.0157 68.0887 74.8317 68.9134V68.9437ZM64.1588 69.8133C62.9127 70.8398 62.072 72.2765 61.787 73.8666C61.787 74.1162 61.8398 74.2221 62.0891 74.2221H75.1037C75.3303 74.2221 75.4285 74.1162 75.4058 73.8666C75.1014 72.2826 74.2572 70.8534 73.0174 69.8231C71.7776 68.7929 70.219 68.2255 68.6077 68.2177C66.983 68.2065 65.4068 68.7718 64.1588 69.8133Z" fill="#102E4F"/>
<path d="M94.8937 68.9436C95.7199 69.752 96.3721 70.7212 96.8099 71.7916C97.2477 72.862 97.4618 74.0108 97.4392 75.1672V76.12H82.151C81.9018 76.12 81.8262 76.2486 81.8489 76.4452C82.1463 78.0332 82.9883 79.4675 84.2295 80.5002C85.4707 81.533 87.0331 82.0994 88.647 82.1017C90.0057 82.1105 91.337 81.7187 92.4747 80.975C93.6125 80.2314 94.5063 79.1688 95.0447 77.9198H97.0388C96.4664 79.6948 95.3381 81.2381 93.8211 82.321C92.3256 83.431 90.5085 84.0205 88.647 83.9997C86.9068 83.9947 85.2071 83.4741 83.762 82.5036C82.3168 81.5331 81.191 80.1561 80.5262 78.546C79.8614 76.936 79.6876 75.165 80.0264 73.4562C80.3653 71.7474 81.2018 70.1772 82.4305 68.9436C83.2459 68.1191 84.2165 67.4646 85.2861 67.0179C86.3557 66.5713 87.5032 66.3413 88.6621 66.3413C89.821 66.3413 90.9685 66.5713 92.0381 67.0179C93.1077 67.4646 94.0782 68.1191 94.8937 68.9436ZM84.2282 69.8132C82.9794 70.8385 82.1359 72.2753 81.8489 73.8665C81.8489 74.1161 81.9018 74.2219 82.151 74.2219H95.1731C95.3997 74.2219 95.4979 74.1161 95.4753 73.8665C95.192 72.2703 94.3415 70.8307 93.0808 69.8132C91.8372 68.7821 90.2731 68.218 88.6583 68.218C87.0436 68.218 85.4795 68.7821 84.2358 69.8132H84.2282Z" fill="#102E4F"/>
<path d="M68.857 41.168H73.9027L73.3211 42.5519C72.0412 45.7189 69.8581 48.4385 67.0442 50.3711C64.4333 52.1621 61.3834 53.2049 58.2237 53.3871C55.0641 53.5693 51.9147 52.884 49.1157 51.405C46.3168 49.9261 43.9745 47.7098 42.3418 44.9954C40.7092 42.281 39.8482 39.1717 39.8518 36.0031C39.8518 31.3902 41.6822 26.9663 44.9402 23.7045C48.1983 20.4427 52.6171 18.6103 57.2247 18.6103C60.7302 18.5866 64.1583 19.6426 67.0442 21.6351C69.8559 23.5864 72.0375 26.3171 73.3211 29.4921L73.9027 30.8836H68.8645L68.5851 30.3467C67.5282 28.2525 65.9225 26.4855 63.9397 25.2347C61.937 23.9433 59.5991 23.2701 57.2171 23.2988C55.5451 23.2927 53.8885 23.6184 52.3429 24.2569C50.7972 24.8954 49.3933 25.8341 48.212 27.0188C47.0308 28.2036 46.0956 29.6108 45.4606 31.1593C44.8256 32.7079 44.5033 34.367 44.5123 36.0409C44.4886 37.7136 44.8045 39.3737 45.4407 40.9205C46.0769 42.4674 47.0202 43.8688 48.2135 45.0399C49.3781 46.2454 50.7791 47.1968 52.3285 47.8345C53.878 48.4722 55.5423 48.7822 57.2171 48.7453C59.5897 48.7826 61.9231 48.1369 63.9397 46.885C65.9273 45.6268 67.5337 43.8487 68.5851 41.7428L68.857 41.168Z" fill="#102E4F"/>
<path d="M94.1459 18.9507V23.6468H88.511V53.0861H83.8656V23.6468H78.2686V18.9507H94.1459Z" fill="#102E4F"/>
<path d="M128.121 23.76C125.69 21.345 122.6 19.7032 119.24 19.0409C115.88 18.3787 112.399 18.7255 109.235 20.0377C106.071 21.35 103.365 23.5693 101.457 26.4166C99.5494 29.2639 98.5246 32.6122 98.5117 36.0408C98.4869 38.3295 98.9251 40.5995 99.8001 42.714C100.675 44.8285 101.969 46.7438 103.603 48.3444C105.211 49.96 107.121 51.2419 109.225 52.1166C111.328 52.9913 113.584 53.4416 115.862 53.4416C118.14 53.4416 120.395 52.9913 122.499 52.1166C124.603 51.2419 126.513 49.96 128.121 48.3444C129.766 46.7501 131.068 44.8367 131.949 42.7212C132.829 40.6057 133.27 38.3325 133.242 36.0408C133.275 33.7517 132.838 31.4802 131.957 29.3675C131.076 27.2548 129.77 25.3461 128.121 23.76ZM115.862 48.7149C114.188 48.7522 112.525 48.4423 110.977 47.8046C109.428 47.1668 108.029 46.2152 106.866 45.0095C104.495 42.6098 103.165 39.3708 103.165 35.9955C103.165 32.6202 104.495 29.3811 106.866 26.9814C108.646 25.1984 110.915 23.9845 113.385 23.4935C115.855 23.0026 118.415 23.2567 120.741 24.2237C123.066 25.1906 125.053 26.8269 126.449 28.9252C127.845 31.0236 128.587 33.4895 128.582 36.0106C128.607 37.6903 128.284 39.3569 127.634 40.9056C126.984 42.4543 126.021 43.8515 124.805 45.0095C123.659 46.2245 122.271 47.1848 120.73 47.8283C119.189 48.4719 117.531 48.7842 115.862 48.7452V48.7149Z" fill="#102E4F"/>
<path d="M154.09 36.0411C155.198 35.1672 156.084 34.0442 156.677 32.7631C157.27 31.4821 157.554 30.0791 157.504 28.668C157.475 26.1012 156.444 23.6478 154.631 21.832C152.819 20.0162 150.369 18.9821 147.805 18.9507H137.608V53.0861H147.768C150.338 53.0801 152.801 52.0552 154.619 50.2355C156.437 48.4159 157.46 45.9497 157.466 43.3763C157.517 41.9742 157.238 40.5798 156.652 39.3055C156.065 38.0313 155.188 36.913 154.09 36.0411ZM151.348 46.9759C150.888 47.448 150.336 47.821 149.727 48.0719C149.118 48.3229 148.464 48.4466 147.805 48.4354H142.291V38.3475H147.805C149.127 38.3801 150.386 38.9204 151.321 39.8565C152.256 40.7926 152.796 42.0529 152.828 43.3763C152.831 44.0478 152.698 44.7129 152.437 45.3315C152.176 45.9502 151.793 46.5095 151.31 46.9759H151.348ZM151.348 32.26C150.884 32.7311 150.329 33.1037 149.718 33.3558C149.107 33.6078 148.451 33.7341 147.79 33.7271H142.276V23.6468H147.79C148.452 23.6355 149.11 23.7577 149.724 24.0059C150.338 24.2542 150.896 24.6235 151.364 25.092C151.833 25.5604 152.203 26.1183 152.452 26.7327C152.701 27.347 152.824 28.0051 152.813 28.668C152.816 29.3357 152.686 29.9973 152.431 30.6141C152.175 31.2308 151.799 31.7904 151.325 32.26H151.348Z" fill="#102E4F"/>
<path d="M166.47 26.3011V33.7271H180.353V38.3778H166.47V45.7735C166.474 46.1277 166.548 46.4777 166.687 46.8033C166.826 47.1289 167.028 47.4238 167.282 47.6711C167.535 47.9183 167.834 48.1131 168.163 48.2443C168.492 48.3755 168.843 48.4404 169.197 48.4354H180.376V53.0861H169.197C168.233 53.0972 167.277 52.9158 166.384 52.5527C165.491 52.1895 164.68 51.6517 163.997 50.9709C163.314 50.29 162.773 49.4797 162.407 48.5873C162.04 47.695 161.855 46.7384 161.862 45.7735V26.3011C161.858 25.3353 162.045 24.3784 162.412 23.4853C162.779 22.5922 163.319 21.7806 164.001 21.0974C164.683 20.4141 165.493 19.8727 166.385 19.5043C167.276 19.1358 168.232 18.9477 169.197 18.9507H180.376V23.6468H169.197C168.842 23.6367 168.489 23.6979 168.159 23.8267C167.829 23.9556 167.527 24.1495 167.273 24.397C167.019 24.6445 166.817 24.9405 166.679 25.2676C166.541 25.5946 166.47 25.9461 166.47 26.3011Z" fill="#102E4F"/>
<path d="M198.285 37.7047C199.996 37.0276 201.486 35.889 202.59 34.4152C203.838 32.7619 204.5 30.7397 204.471 28.668C204.483 26.1067 203.48 23.6453 201.682 21.8236C199.883 20.0019 197.437 18.9687 194.878 18.9507H184.727V53.0861H189.327V38.3475H193.504L199.969 53.0861H205L198.285 37.7047ZM188.836 22.641V23.6468V22.641ZM189.334 23.6468H194.878C195.541 23.6366 196.198 23.7594 196.812 24.008C197.426 24.2565 197.984 24.6258 198.453 25.0939C198.922 25.562 199.292 26.1194 199.542 26.7333C199.792 27.3472 199.917 28.0051 199.909 28.668C199.914 29.3319 199.787 29.9901 199.537 30.6047C199.286 31.2192 198.916 31.7779 198.448 32.2484C197.98 32.7189 197.424 33.0918 196.811 33.3456C196.198 33.5994 195.541 33.7291 194.878 33.7271H189.364L189.334 23.6468Z" fill="#102E4F"/>
<path d="M20.2507 18.5195C17.6375 18.1308 14.9703 18.3376 12.448 19.1245L20.3413 3.78095C20.5005 3.47917 20.598 3.14869 20.6282 2.80878C20.6584 2.46888 20.6208 2.12635 20.5174 1.80116C20.4141 1.47597 20.2471 1.17464 20.0262 0.91472C19.8054 0.654802 19.535 0.441502 19.231 0.287255C18.6228 -0.0255378 17.9155 -0.0841733 17.2642 0.1242C16.6129 0.332573 16.0707 0.790957 15.7564 1.39889L2.78718 26.6185C0.856122 29.7055 -0.0604769 33.3206 0.166143 36.956C0.367659 40.267 1.50189 43.4533 3.43749 46.1456C5.37309 48.838 8.03087 50.9264 11.1031 52.1689C14.1753 53.4115 17.5362 53.7573 20.7966 53.1665C24.057 52.5757 27.0836 51.0723 29.5258 48.8305C31.9681 46.5887 33.7261 43.7001 34.5962 40.4993C35.4663 37.2985 35.4131 33.9164 34.4425 30.7447C33.472 27.573 31.6239 24.7413 29.1122 22.5777C26.6006 20.4142 23.5281 19.0071 20.2507 18.5195ZM16.474 48.216C14.5666 48.0326 12.7279 47.4079 11.1029 46.3912C9.47798 45.3745 8.11129 43.9936 7.11071 42.3576C6.11013 40.7215 5.50305 38.875 5.33736 36.9638C5.17168 35.0526 5.45193 33.1291 6.15601 31.3449L7.27392 29.1745C8.46425 27.3262 10.1246 25.8285 12.0845 24.8353C14.0443 23.842 16.233 23.3891 18.4256 23.5229C20.6182 23.6568 22.7356 24.3727 24.5604 25.597C26.3851 26.8213 27.8514 28.5099 28.8086 30.4893C29.7658 32.4688 30.1793 34.6676 30.0067 36.86C29.8341 39.0524 29.0816 41.1592 27.8265 42.9641C26.5714 44.769 24.859 46.2067 22.8651 47.1297C20.8713 48.0527 18.668 48.4276 16.4815 48.216H16.474Z" fill="#102E4F"/>
<path d="M22.1088 27.8286C22.309 27.8286 22.5047 27.888 22.6712 27.9994C22.8376 28.1107 22.9673 28.269 23.044 28.4542C23.1206 28.6393 23.1406 28.8431 23.1015 29.0396C23.0625 29.2362 22.9661 29.4168 22.8245 29.5585C22.683 29.7002 22.5026 29.7967 22.3063 29.8358C22.11 29.8749 21.9064 29.8548 21.7215 29.7781C21.5366 29.7014 21.3785 29.5716 21.2673 29.4049C21.156 29.2383 21.0967 29.0424 21.0967 28.8419C21.0967 28.5732 21.2033 28.3154 21.3931 28.1254C21.583 27.9354 21.8404 27.8286 22.1088 27.8286Z" fill="#102E4F"/>
<path d="M16.4061 34.415C15.7544 34.415 15.1174 34.2214 14.5756 33.8588C14.0339 33.4962 13.6118 32.9808 13.3628 32.3779C13.1137 31.775 13.0489 31.1116 13.1766 30.4719C13.3043 29.8321 13.6187 29.2446 14.0801 28.7838C14.5414 28.323 15.1289 28.0096 15.7682 27.8832C16.4076 27.7569 17.07 27.8232 17.6716 28.074C18.2732 28.3247 18.7871 28.7484 19.148 29.2916C19.509 29.8348 19.7009 30.473 19.6994 31.1254C19.6994 31.5581 19.6141 31.9864 19.4485 32.386C19.2829 32.7856 19.0402 33.1486 18.7343 33.4542C18.4284 33.7597 18.0653 34.0019 17.6658 34.1667C17.2663 34.3316 16.8382 34.416 16.4061 34.415Z" fill="#102E4F"/>
<path d="M22.4034 35.8142C22.145 35.8142 21.8923 35.7375 21.6774 35.5938C21.4625 35.45 21.2951 35.2457 21.1961 35.0066C21.0972 34.7676 21.0714 34.5045 21.1218 34.2508C21.1722 33.997 21.2967 33.7639 21.4794 33.5809C21.6622 33.398 21.895 33.2734 22.1485 33.2229C22.402 33.1724 22.6647 33.1983 22.9035 33.2973C23.1423 33.3964 23.3464 33.564 23.4899 33.7792C23.6335 33.9943 23.7102 34.2473 23.7102 34.506C23.7082 34.8524 23.5699 35.184 23.3252 35.4289C23.0806 35.6738 22.7494 35.8123 22.4034 35.8142Z" fill="#102E4F"/>
</g>
<defs>
<clipPath id="clip0_13_450">
<rect width="205" height="84" fill="white"/>
</clipPath>
</defs>
</svg>
